<svg width="16" height="16" viewBox="0 0 16 16" fill="none" xmlns="http://www.w3.org/2000/svg">
<g clip-path="url(#clip0_1332_7138)">
<path d="M14.2934 7.36726L8.1667 13.4939C7.41613 14.2445 6.39815 14.6662 5.3367 14.6662C4.27524 14.6662 3.25726 14.2445 2.5067 13.4939C1.75613 12.7434 1.33447 11.7254 1.33447 10.6639C1.33447 9.60247 1.75613 8.58449 2.5067 7.83393L8.63336 1.70726C9.13374 1.20689 9.81239 0.925781 10.52 0.925781C11.2277 0.925781 11.9063 1.20689 12.4067 1.70726C12.9071 2.20764 13.1882 2.88629 13.1882 3.59393C13.1882 4.30157 12.9071 4.98022 12.4067 5.4806L6.27336 11.6073C6.02318 11.8575 5.68385 11.998 5.33003 11.998C4.97621 11.998 4.63688 11.8575 4.3867 11.6073C4.13651 11.3571 3.99596 11.0177 3.99596 10.6639C3.99596 10.3101 4.13651 9.97078 4.3867 9.7206L10.0467 4.06726" stroke="#1E1E1E" stroke-width="1.6" stroke-linecap="round" stroke-linejoin="round"/>
</g>
<defs>
<clipPath id="clip0_1332_7138">
<rect width="16" height="16" fill="white"/>
</clipPath>
</defs>
</svg>
